# xmcd
# Copyright (C) 1995-1998 Ti Kan
#
# Track frame offsets:
#       150
#       18355
#       34891
#       48361
#       64495
#       82909
#       96917
#       128524
#       146549
#       165942
#       181246
#       197108
#       211931
#
# Disc length: 3119 seconds
#
# Revision: 0
# Processed by: cddbd v1.5.2PL0 Copyright (c) Steve Scherf et al.
# Submitted via: CD-Import v1.0
#
DISCID=a90c2d0d
DTITLE=Starch - Music
DYEAR=2009
DGENRE=
TTITLE0=Can't Stop Me Now
TTITLE1=Superstar
TTITLE2=Girlfriend
TTITLE3=Good Music
TTITLE4=Plastic Feat. Mia Sway
TTITLE5=Chaos Bar
TTITLE6=Boon Or Bane
TTITLE7=Never Been To Nyc (La Verité Qui Blesse) Feat. Gustav
TTITLE8=Need You Around
TTITLE9=Julia
TTITLE10=King's Street
TTITLE11=What You Want
TTITLE12=Whenever
EXTD=
EXTT0=
EXTT1=
EXTT2=
EXTT3=
EXTT4=
EXTT5=
EXTT6=
EXTT7=
EXTT8=
EXTT9=
EXTT10=
EXTT11=
EXTT12=
PLAYORDER=
